<?xml version="1.0" encoding="UTF-8" standalone="no"?><!-- Generator: Gravit.io --><svg xmlns="http://www.w3.org/2000/svg" xmlns:xlink="http://www.w3.org/1999/xlink" style="isolation:isolate" viewBox="0 0 16 16" width="16pt" height="16pt"><defs><clipPath id="_clipPath_0S2GN5j9DLRdqORCWWngMICVDrwjLw5T"><rect width="16" height="16"/></clipPath></defs><g clip-path="url(#_clipPath_0S2GN5j9DLRdqORCWWngMICVDrwjLw5T)"><path d=" M 0.5 9.9 C 0.776 9.9 1 10.124 1 10.4 L 1 12.9 C 1 13.452 1.448 13.9 2 13.9 L 14 13.9 C 14.552 13.9 15 13.452 15 12.9 L 15 10.4 C 15 10.124 15.224 9.9 15.5 9.9 C 15.776 9.9 16 10.124 16 10.4 L 16 12.9 C 16 14.005 15.105 14.9 14 14.9 L 2 14.9 C 0.895 14.9 0 14.005 0 12.9 L 0 10.4 C 0 10.124 0.224 9.9 0.5 9.9 Z " fill="rgb(255,255,255)"/><path d=" M 7.646 11.854 C 7.74 11.948 7.867 12.001 8 12.001 C 8.133 12.001 8.26 11.948 8.354 11.854 L 11.354 8.854 C 11.55 8.658 11.55 8.342 11.354 8.146 C 11.158 7.95 10.842 7.95 10.646 8.146 L 8.5 10.293 L 8.5 1.5 C 8.5 1.224 8.276 1 8 1 C 7.724 1 7.5 1.224 7.5 1.5 L 7.5 10.293 L 5.354 8.146 C 5.158 7.95 4.842 7.95 4.646 8.146 C 4.45 8.342 4.45 8.658 4.646 8.854 L 7.646 11.854 L 7.646 11.854 Z " fill="rgb(255,255,255)"/></g></svg>