<?xml version="1.0" encoding="UTF-8" standalone="no"?><!-- Generator: Gravit.io --><svg xmlns="http://www.w3.org/2000/svg" xmlns:xlink="http://www.w3.org/1999/xlink" style="isolation:isolate" viewBox="0 0 16 16" width="16pt" height="16pt"><defs><clipPath id="_clipPath_FJ7dDXGiNRs7Oo4aMD61tdIUtG0jU3vz"><rect width="16" height="16"/></clipPath></defs><g clip-path="url(#_clipPath_FJ7dDXGiNRs7Oo4aMD61tdIUtG0jU3vz)"><path d=" M 0.5 9.9 C 0.776 9.9 1 10.124 1 10.4 L 1 12.9 C 1 13.452 1.448 13.9 2 13.9 L 14 13.9 C 14.552 13.9 15 13.452 15 12.9 L 15 10.4 C 15 10.124 15.224 9.9 15.5 9.9 C 15.776 9.9 16 10.124 16 10.4 L 16 12.9 C 16 14.005 15.105 14.9 14 14.9 L 2 14.9 C 0.895 14.9 0 14.005 0 12.9 L 0 10.4 C 0 10.124 0.224 9.9 0.5 9.9 Z " fill="rgb(255,255,255)"/><path d=" M 7.646 1.146 C 7.74 1.052 7.867 0.999 8 0.999 C 8.133 0.999 8.26 1.052 8.354 1.146 L 11.354 4.146 C 11.55 4.342 11.55 4.658 11.354 4.854 C 11.158 5.05 10.842 5.05 10.646 4.854 L 8.5 2.707 L 8.5 11.5 C 8.5 11.776 8.276 12 8 12 C 7.724 12 7.5 11.776 7.5 11.5 L 7.5 2.707 L 5.354 4.854 C 5.158 5.05 4.842 5.05 4.646 4.854 C 4.45 4.658 4.45 4.342 4.646 4.146 L 7.646 1.146 L 7.646 1.146 Z " fill="rgb(255,255,255)"/></g></svg>